<?xml version="1.0" encoding="utf-8"?>
<!-- Generator: Adobe Illustrator 27.5.0, SVG Export Plug-In . SVG Version: 6.00 Build 0)  -->
<svg version="1.1" id="Capa_1" xmlns="http://www.w3.org/2000/svg" xmlns:xlink="http://www.w3.org/1999/xlink" x="0px" y="0px"
	 viewBox="0 0 2312 1947" style="enable-background:new 0 0 2312 1947;" xml:space="preserve">
<g>
	<path style="fill:#C6C6C6;" d="M1738.724,762.556c-85.974,0-165.928,25.609-232.81,69.499l-86.051-124.576l9.193-26.937
		l0.575,0.224c4.201,1.632,8.971-0.47,10.603-4.67l4.38-11.275c1.632-4.201-0.47-8.972-4.67-10.604l-8.945-3.474l15.87-49.395
		c0,0,8.737-1.332,17.15-5.04c3.61,0.546,7.209,0.846,10.758,0.846c9.575-0.002,18.795-1.934,26.926-5.602
		c6.661-3.003,11.79-7.743,15.795-13.131c4.937,0.529,9.389,0.862,13.102,0.922c53.223,0.867,73.694-31.727,72.19-104.872
		c0.28-9.562-2.123-17.061-9.262-17.76c-15.691-1.537-174.691,50.271-243.985,51.953c-51.115,1.241-34.761,45.3-1.16,49.169
		c17.142,1.974,45.458,4.599,75.676,6.398c-0.139,0.32-0.301,0.623-0.408,0.963l-2.274,7.241l-21.517,66.21l-3.415-1.326
		c-4.2-1.632-8.972,0.47-10.604,4.67l-4.379,11.275c-1.5,3.861,0.179,8.174,3.719,10.117l-81.289,238.182L751.627,569.342
		c-0.015-3.701-1.995-7.123-5.119-9.015l1.631-0.439c3.06,0.671,6.112-1.284,6.783-4.344l0.61-2.782
		c0.67-3.061-1.285-6.113-4.346-6.784l2.745-22.142c2.072-16.709-4.476-33.327-17.389-44.131l-31.561-26.408
		c-12.047-10.08-17.578-25.966-14.395-41.348l4.832-23.358c1.67-8.074,9.506-29.485,25.725-23.545l44.343,14.886l-0.618,1.936
		c-0.812,2.545-0.313,1.621,3.016,2.685c0,0,81.833,34.578,92.644,32.945c10.81-1.633,16.949-20.279,9.616-28.705
		c-7.334-8.426-92.072-36.355-92.072-36.355c-3.33-1.063-3.072-2.296-3.884,0.249l-0.69,2.158
		c-17.168-8.029-53.433-19.008-63.053-20.755c-15.212-2.763-39.476,16.331-44.573,32.131l-12.947,62.573
		c-3.274,15.827,2.679,32.145,15.377,42.145l19.84,15.624c13.828,10.89,20.847,28.293,18.443,45.73l-0.524,3.801
		c-3.061-0.67-6.113,1.285-6.784,4.346l-0.609,2.782c-0.67,3.06,1.286,6.113,4.346,6.783l1.549,1.089
		c-4.478,0.4-8.409,3.608-9.419,8.218l-25.608,116.896c-0.945,4.314,0.929,8.608,4.37,10.975l-0.9-0.197
		c-3.06-0.67-6.113,1.285-6.783,4.346l-0.609,2.782c-0.67,3.06,1.285,6.112,4.346,6.783l3.64,0.798l-9.488,45.482
		c-3.892,1.411-6.908,4.455-8.209,10.295c0,0-0.859,4.625-2.375,12.758c-25.999-4.971-52.805-7.67-80.253-7.67
		c-234.719,0-424.997,190.278-424.997,424.997c0,234.719,190.278,424.997,424.997,424.997s424.997-190.278,424.997-424.997
		c0-191.98-127.322-354.161-302.11-406.882c1.8-7.919,2.818-12.416,2.818-12.416c1.668-5.993,0.52-10.33-2.261-13.504l9.574-45.898
		l8.792,1.926c3.06,0.67,6.113-1.285,6.783-4.346l0.609-2.782c0.671-3.06-1.284-6.113-4.345-6.783l-0.899-0.197
		c4.115-0.712,7.612-3.828,8.558-8.143l0.62-2.831l428.096,500.094c0.388,1.354,1.066,2.636,2.255,3.569l0.297,0.167
		c-0.92,1.339-1.789,2.707-2.641,4.092l-0.311-0.203c-3.402-1.773-7.645-0.421-9.416,2.981c-1.772,3.45-0.42,7.644,2.982,9.415
		l0.319,0.121c-0.636,1.474-1.198,2.977-1.76,4.486l-0.33-0.133c-3.729-1.072-7.597,1.071-8.668,4.801
		c-1.072,3.682,1.072,7.551,4.755,8.669l0.323,0.045c-0.331,1.563-0.58,3.146-0.833,4.733l-0.376-0.071
		c-3.823-0.327-7.225,2.516-7.551,6.384c-0.325,3.869,2.517,7.225,6.386,7.551l0.331,0.026c-0.018,1.598,0.036,3.202,0.099,4.814
		l-0.337,0.007c-3.869,0.419-6.618,3.869-6.199,7.69c0.372,3.589,3.402,6.247,6.943,6.247l0.794-0.048l0.327-0.07
		c0.293,1.586,0.611,3.156,0.979,4.71l-0.327,0.068c-3.682,1.165-5.732,5.079-4.567,8.761c0.93,2.983,3.679,4.893,6.662,4.893
		c0.699,0,1.4-0.093,2.099-0.325l0.336-0.145c0.596,1.498,1.204,2.985,1.871,4.443l-0.298,0.127
		c-3.402,1.866-4.613,6.106-2.749,9.508c1.258,2.285,3.637,3.637,6.105,3.637c1.165,0,2.331-0.328,3.402-0.886l0.28-0.194
		c0.875,1.344,1.763,2.671,2.701,3.966l-0.277,0.189c-2.935,2.471-3.309,6.9-0.839,9.835c1.399,1.677,3.357,2.517,5.359,2.517
		c1.587,0,3.17-0.559,4.477-1.632l0.26-0.269c1.129,1.158,2.28,2.285,3.466,3.384l-0.231,0.239c-2.423,2.984-1.96,7.412,1.072,9.788
		c1.259,1.071,2.842,1.538,4.381,1.538c2.05,0,4.053-0.886,5.452-2.61l0.168-0.265c1.324,0.91,2.673,1.772,4.042,2.617l-0.202,0.307
		c-1.771,3.402-0.419,7.641,2.984,9.414c1.023,0.512,2.143,0.792,3.215,0.792c2.517,0,4.985-1.352,6.199-3.776l0.122-0.298
		c1.476,0.637,2.98,1.207,4.491,1.77l-0.139,0.346c-0.924,3.172,0.625,6.406,3.434,7.956l-10.903,75.965l-35.403,6.218
		c-6.175,1.085-10.302,6.969-9.217,13.144c1.084,6.175,6.969,10.302,13.144,9.217l80.161-14.079
		c6.175-1.085,10.301-6.97,9.217-13.145c-1.085-6.175-6.97-10.302-13.144-9.217l-19.667,3.455l12.391-69.192
		c1.147-1.128,1.944-2.629,2.1-4.358l-0.005-0.323c1.608,0.021,3.223-0.027,4.846-0.089l0.007,0.364
		c0.371,3.589,3.402,6.199,6.897,6.199l0.793-0.045c3.821-0.419,6.617-3.868,6.199-7.69l-0.074-0.347
		c1.584-0.291,3.156-0.603,4.709-0.97l0.071,0.338c0.932,2.981,3.682,4.893,6.665,4.893c0.699,0,1.397-0.093,2.097-0.326
		c3.682-1.165,5.732-5.081,4.568-8.763l-0.144-0.335c1.5-0.596,2.991-1.198,4.449-1.865l0.123,0.289
		c1.258,2.33,3.682,3.635,6.15,3.635c1.12,0,2.285-0.28,3.357-0.885c3.354-1.864,4.613-6.106,2.749-9.461l-0.205-0.299
		c1.352-0.878,2.691-1.764,3.993-2.707l0.173,0.254c1.398,1.632,3.357,2.517,5.36,2.517c1.587,0,3.215-0.56,4.522-1.677
		c2.936-2.471,3.309-6.897,0.837-9.833l-0.243-0.236c1.153-1.121,2.278-2.261,3.371-3.438l0.229,0.224
		c1.304,1.026,2.842,1.538,4.381,1.538c2.05,0,4.055-0.885,5.453-2.61c2.423-3.029,1.957-7.41-1.072-9.833l-0.275-0.178
		c0.912-1.323,1.778-2.67,2.623-4.037l0.31,0.204c1.023,0.514,2.095,0.794,3.215,0.794c2.368,0,4.617-1.273,5.927-3.397
		c46.341,184.518,213.273,321.163,412.167,321.163c234.718,0,424.996-190.278,424.996-424.997
		C2163.72,952.834,1973.442,762.556,1738.724,762.556z M1504.486,576.753c-2.154,1.986-4.533,3.652-7.26,4.887
		c-5.934,2.682-12.789,4.215-19.988,4.515c0.892-1.453,1.579-3.011,1.898-4.727l-11.973-1.864v-5.272
		c0-1.54-0.459-2.953-1.099-4.271C1478.799,572.524,1492.367,574.987,1504.486,576.753z M640.618,839.152
		c-18.751,99.711-48.87,258.056-55.435,281.688c-1.969,7.09-4.205,13.765-6.511,19.945l10.141-307.705
		C606.45,833.841,623.74,835.909,640.618,839.152z M573.273,832.688c2.581,0,5.128,0.14,7.697,0.195l-10.138,307.612
		c-2.674,0.04-5.291,0.308-7.838,0.779l-95.277-292.622C501.062,838.277,536.514,832.688,573.273,832.688z M460.286,851.166
		l95.14,292.203c-3.898,1.434-7.552,3.353-10.883,5.718l-209.89-224.196C370.568,892.245,413.249,866.961,460.286,851.166z
		 M328.976,930.304l209.541,223.823c-2.004,2.004-3.813,4.202-5.428,6.541L259.63,1021.545
		C277.721,987.437,301.223,956.668,328.976,930.304z M256.053,1028.528l273.16,138.971c-1.82,3.91-3.103,8.107-3.78,12.514
		l-306.579-10.104C221.336,1119.248,234.506,1071.424,256.053,1028.528z M218.409,1187.553c0-3.288,0.159-6.536,0.247-9.802
		l306.21,10.092c0.045,3.076,0.37,6.082,0.982,8.987l-291.834,95.021C223.886,1258.87,218.409,1223.854,218.409,1187.553z
		 M236.469,1299.301l291.668-94.967c1.687,4.254,3.973,8.195,6.766,11.728L310.549,1426.1
		C277.647,1389.886,252.221,1346.799,236.469,1299.301z M315.96,1431.781l224.317-210.004c2.27,2.049,4.734,3.874,7.374,5.451
		l-139.59,274.376C373.609,1483.442,342.541,1459.776,315.96,1431.781z M415.042,1505.179L554.7,1230.67
		c4.109,1.59,8.487,2.619,13.062,2.985l-10.163,308.366C506.529,1539.8,458.287,1526.765,415.042,1505.179z M573.273,1542.417
		c-2.626,0-5.218-0.141-7.831-0.198l10.17-308.581c2.986-0.26,5.883-0.812,8.682-1.607l95.731,294.017
		C646.33,1536.666,610.477,1542.417,573.273,1542.417z M687.457,1523.534l-95.821-294.292c3.872-1.854,7.445-4.212,10.637-7.013
		l211.636,226.062C777.874,1481.565,734.92,1507.407,687.457,1523.534z M819.587,1442.877l-211.842-226.281
		c1.726-2.121,3.264-4.398,4.601-6.803l276.227,140.532C870.696,1384.883,847.327,1416.111,819.587,1442.877z M892.15,1343.343
		l-276.611-140.727c1.305-3.713,2.161-7.628,2.487-11.703l309.77,10.209C925.879,1252.001,913.299,1300.136,892.15,1343.343z
		 M928.138,1187.553c0,1.921-0.114,3.813-0.145,5.727l-309.984-10.216c-0.225-2.592-0.687-5.109-1.318-7.562l294.659-95.94
		C922.221,1113.62,928.138,1149.89,928.138,1187.553z M908.836,1072.131l-294.718,95.959c-1.586-3.54-3.597-6.841-5.974-9.848
		l225.803-211.394C866.962,982.584,892.67,1025.128,908.836,1072.131z M828.534,941.17l-225.712,211.309
		c3.285-6.994,6.564-14.572,9.496-22.432c1.674-4.485,4.542-14.655,8.238-28.82L736.84,872.659
		C771.055,890.469,801.986,913.672,828.534,941.17z M729.858,869.083l-100.625,197.786c15.073-61.063,36.212-152.139,51.261-217.653
		C697.548,854.615,714.028,861.284,729.858,869.083z M2074.285,1072.131l-292.212,95.143c-1.811-3.835-4.109-7.386-6.846-10.562
		l224.168-209.864C2032.412,982.584,2058.119,1025.128,2074.285,1072.131z M1993.983,941.17l-224.336,210.021
		c-2.088-1.731-4.346-3.257-6.718-4.607l139.361-273.925C1936.505,890.469,1967.435,913.671,1993.983,941.17z M1895.308,869.083
		l-139.512,274.223c-3.7-1.345-7.6-2.263-11.67-2.631l10.138-307.594C1804.732,835.257,1852.451,847.97,1895.308,869.083z
		 M1738.724,832.688c2.581,0,5.129,0.14,7.697,0.195l-10.144,307.759c-2.615,0.2-5.16,0.622-7.637,1.235l-95.473-293.224
		C1666.512,838.277,1701.965,832.688,1738.724,832.688z M1625.737,851.166l95.071,291.992L1545.79,889.784
		C1570.493,873.745,1597.305,860.713,1625.737,851.166z M1527.885,902.132l138.15,200l-165.931-177.241
		C1508.96,916.841,1518.247,909.264,1527.885,902.132z M1678.479,1126.902l-232.512-139.871
		c14.132-20.593,30.408-39.579,48.459-56.728L1678.479,1126.902z M1411.121,733.093l76.91,111.342
		c-39.948,29.237-74.632,65.229-102.282,106.372l-40.597-24.421L1411.121,733.093z M1252.642,1051.722h-34.14
		c-6.269,0-11.351,5.082-11.351,11.352c-0.001,6.27,5.082,11.352,11.351,11.352h26.392l-23.261,68.156
		c-2.321,1.365-3.755,3.968-3.444,6.789l0.108,0.345c-1.597,0.296-3.176,0.621-4.741,0.994l-0.075-0.36
		c-1.165-3.682-5.079-5.685-8.761-4.519c-3.682,1.165-5.733,5.079-4.567,8.761l0.165,0.326c-1.506,0.601-2.998,1.218-4.461,1.891
		l-0.133-0.308c-1.55-2.83-4.729-4.021-7.719-3.311L739.221,627.216l2.82-12.876l547.474,329.341L1252.642,1051.722z
		 M1323.845,1281.547l-0.276-0.111c0.157-0.363,0.287-0.738,0.437-1.104c0.123,0.553,0.256,1.102,0.382,1.655
		C1324.189,1281.855,1324.06,1281.661,1323.845,1281.547z M1314.039,1175.181l-3.41,0.102c-1.369-0.367-2.787-0.377-4.138,0.122
		l-3.729,0.111c-0.696-0.682-1.382-1.374-2.098-2.036l0.251-0.246c2.376-3.029,1.91-7.412-1.119-9.834
		c-3.029-2.423-7.41-1.911-9.834,1.118l-0.173,0.267c-1.33-0.912-2.694-1.768-4.071-2.613l0.189-0.265
		c1.77-3.447,0.466-7.689-2.984-9.46c-3.402-1.773-7.642-0.421-9.414,2.981l-0.125,0.318c-1.48-0.634-2.993-1.193-4.508-1.753
		l0.159-0.334c0.382-1.332,0.235-2.638-0.127-3.871l25.72-75.362h5.261c6.269-0.001,11.352-5.083,11.352-11.352
		c0-5.446-3.84-9.986-8.956-11.087l28.493-83.485l32.626,19.627C1333.557,1044.185,1315.973,1107.712,1314.039,1175.181z
		 M1421.504,1028.527l58.704,29.866l177.185,106.589l-222.25,6.602l-50.838-1.675
		C1386.786,1119.248,1399.957,1071.423,1421.504,1028.527z M1386.152,1227.467l243.988-10.724l-230.676,75.107
		C1393.103,1271.137,1388.632,1249.604,1386.152,1227.467z M1401.919,1299.301l257.512-83.845l41.986-1.845
		c0.203,0.294,0.431,0.568,0.641,0.856L1475.999,1426.1C1443.097,1389.886,1417.671,1346.799,1401.919,1299.301z M1481.409,1431.78
		l225.745-211.339c2.04,2.005,4.252,3.836,6.63,5.441l-140.274,275.721C1539.06,1483.441,1507.99,1459.776,1481.409,1431.78z
		 M1580.493,1505.179l140.164-275.505c3.93,1.779,8.146,3.012,12.567,3.643l-10.174,308.703
		C1671.978,1539.799,1623.737,1526.766,1580.493,1505.179z M1738.724,1542.417c-2.627,0-5.218-0.141-7.832-0.198l10.165-308.434
		c3.052-0.077,6.032-0.43,8.911-1.066l95.507,293.329C1811.781,1536.665,1775.927,1542.417,1738.724,1542.417z M1852.906,1523.534
		l-95.446-293.144c4.19-1.707,8.07-4.003,11.549-6.787l210.35,224.688C1943.324,1481.565,1900.369,1507.407,1852.906,1523.534z
		 M1985.037,1442.878l-210.351-224.688c2-2.242,3.781-4.672,5.324-7.271l274.013,139.405
		C2036.146,1384.883,2012.777,1416.111,1985.037,1442.878z M2057.599,1343.343l-274.168-139.484
		c1.553-4.047,2.569-8.352,2.937-12.85l306.876,10.114C2091.328,1252.001,2078.749,1300.136,2057.599,1343.343z M1786.361,1183.159
		c-0.249-2.931-0.782-5.776-1.547-8.528l291.986-95.069c10.87,34.058,16.788,70.328,16.788,107.991c0,1.921-0.114,3.813-0.145,5.727
		L1786.361,1183.159z"/>
	<g>
		<path style="fill:#999999;" d="M1239.677,1409.574l-19.668,3.454l12.391-69.191c-1.266,1.244-2.963,2.027-4.845,2.027h-0.605
			c-3.869-0.327-6.711-3.729-6.386-7.55l0.07-0.376c-1.581-0.253-3.159-0.506-4.717-0.838l-0.059,0.328
			c-0.934,3.028-3.73,5.033-6.759,5.033c-0.606,0-1.259-0.093-1.912-0.28c-0.514-0.148-0.915-0.464-1.365-0.712l-10.903,75.965
			l-35.403,6.218c-6.175,1.085-10.302,6.969-9.217,13.144s6.97,10.301,13.144,9.217l80.161-14.079
			c6.175-1.085,10.301-6.97,9.216-13.145C1251.737,1412.617,1245.852,1408.49,1239.677,1409.574z"/>
		<path style="fill:#999999;" d="M1302.286,1051.987c-0.774-0.167-1.573-0.264-2.396-0.264l-47.247-0.001h-34.14
			c-6.269,0-11.351,5.082-11.351,11.352c-0.001,6.27,5.082,11.352,11.351,11.352h26.392h5.598l-12.027,69.68L1228,1204.73
			l-4.26,24.682l-1.767,10.237c-1.296,7.506,3.233,14.793,10.536,16.955c8.849,2.62,17.946-3.286,19.153-12.437l1.109-8.082
			l3.614-26.356l8.81-64.243l9.745-71.062h19.688h5.262c6.269,0,11.352-5.082,11.352-11.351
			C1311.242,1057.629,1307.402,1053.088,1302.286,1051.987z"/>
	</g>
	<path style="fill:#787878;" d="M1252.821,1418.791c-1.084-6.175-6.969-10.302-13.144-9.217l-19.668,3.454l-25.09,4.407
		l-35.403,6.218c-6.175,1.085-10.302,6.969-9.217,13.144s6.97,10.301,13.144,9.217l80.161-14.079
		C1249.78,1430.851,1253.906,1424.966,1252.821,1418.791z"/>
	<path style="fill:#787878;" d="M1302.286,1051.987c-0.774-0.167-1.573-0.264-2.396-0.264l-47.247-0.001h-34.14
		c-6.269,0-11.351,5.082-11.351,11.352c-0.001,6.27,5.082,11.352,11.351,11.352h26.392h5.598h24.447h19.688h5.262
		c6.269,0,11.352-5.082,11.352-11.351C1311.242,1057.629,1307.402,1053.088,1302.286,1051.987z"/>
	<path style="fill:#21141A;" d="M1738.723,762.556c-85.973,0-165.928,25.609-232.81,69.499l18.482,26.756
		c61.63-40.264,135.218-63.751,214.328-63.751c216.768,0,392.493,175.726,392.493,392.493
		c0,216.766-175.725,392.491-392.493,392.491c-202.722,0-369.514-153.701-390.282-350.919l-11.467,0.504
		c0.397,0.751,0.697,1.571,0.805,2.469v0.28l0.048,0.094c0.373,3.868-2.379,7.316-6.2,7.737h-0.362
		c0.058,1.609,0.099,3.21,0.078,4.805l0.331-0.005c3.869,0.325,6.713,3.727,6.386,7.55c-0.326,3.634-3.403,6.386-6.991,6.386h-0.605
		l-0.347-0.065c-0.258,1.595-0.519,3.185-0.856,4.756l0.318,0.061c3.682,1.074,5.826,4.94,4.753,8.671
		c-0.885,3.029-3.682,5.034-6.71,5.034c-0.654,0-1.306-0.093-1.957-0.28l-0.333-0.138c-0.421,1.128-0.87,2.239-1.325,3.349
		c0.123,0.553,0.256,1.102,0.382,1.655c2.978,1.972,4.1,5.789,2.44,9.022c-0.074,0.141-0.189,0.244-0.271,0.377
		c46.341,184.519,213.273,321.163,412.166,321.163c234.719,0,424.997-190.277,424.997-424.997S1973.442,762.556,1738.723,762.556z"
		/>
	<path style="fill:#21141A;" d="M1385.749,950.807l27.886,16.776c25.225-37.207,56.697-69.812,92.867-96.406l-18.472-26.741
		C1448.083,873.672,1413.399,909.664,1385.749,950.807z"/>
	<path style="fill:#21141A;" d="M1346.569,1174.215c2.041-60.986,17.958-118.43,44.753-169.292l-27.917-16.794
		c-29.847,56.055-47.432,119.583-49.366,187.052L1346.569,1174.215z"/>
	<path style="fill:#CCCCCC;" d="M1625.736,851.166c2.479-0.832,4.927-1.735,7.43-2.514c33.345-10.375,68.798-15.964,105.557-15.964
		c2.582,0,5.129,0.14,7.697,0.195c2.617,0.056,5.24,0.086,7.843,0.198c50.469,2.177,98.187,14.889,141.044,36.002
		c2.347,1.156,4.664,2.369,6.982,3.576c34.215,17.81,65.146,41.013,91.693,68.511c1.817,1.881,3.638,3.757,5.413,5.678
		c33.016,35.737,58.724,78.28,74.889,125.283c0.85,2.472,1.719,4.935,2.515,7.431c10.871,34.058,16.788,70.328,16.788,107.99
		c0,1.921-0.114,3.813-0.145,5.727c-0.041,2.62-0.1,5.236-0.198,7.842c-1.916,50.879-14.496,99.014-35.645,142.22
		c-1.151,2.351-2.375,4.66-3.576,6.982c-17.877,34.558-41.247,65.786-68.986,92.553c-1.882,1.816-3.757,3.639-5.678,5.413
		c-36.036,33.275-78.99,59.116-126.453,75.243c-2.476,0.841-4.93,1.726-7.431,2.514c-33.695,10.617-69.549,16.369-106.752,16.369
		c-2.627,0-5.218-0.141-7.832-0.198c-2.617-0.057-5.24-0.085-7.843-0.199c-51.071-2.222-99.312-15.255-142.557-36.842
		c-2.34-1.168-4.67-2.358-6.981-3.576c-34.451-18.162-65.521-41.827-92.102-69.823c-1.801-1.897-3.652-3.744-5.411-5.68
		c-32.902-36.215-58.327-79.302-74.08-126.8c-0.823-2.482-1.686-4.944-2.454-7.45c-6.361-20.714-10.833-42.246-13.312-64.384
		l-37.711,1.657c20.767,197.218,187.56,350.919,390.282,350.919c216.768,0,392.493-175.725,392.493-392.491
		c0-216.767-175.725-392.493-392.493-392.493c-79.111,0-152.698,23.487-214.328,63.751l21.394,30.973
		C1570.492,873.744,1597.305,860.713,1625.736,851.166z"/>
	<path style="fill:#CCCCCC;" d="M1413.635,967.582l32.332,19.449c14.132-20.593,30.408-39.579,48.459-56.728
		c1.896-1.801,3.742-3.654,5.678-5.413c8.855-8.05,18.143-15.627,27.781-22.759l-21.383-30.956
		C1470.332,897.77,1438.86,930.376,1413.635,967.582z"/>
	<path style="fill:#CCCCCC;" d="M1384.224,1173.096c0.042-1.059,0.028-2.132,0.08-3.188c2.481-50.66,15.652-98.485,37.198-141.381
		c0.701-1.394,1.415-2.78,2.134-4.164l-32.315-19.44c-26.795,50.862-42.711,108.306-44.753,169.292L1384.224,1173.096z"/>
	<path style="fill:#21141A;" d="M965.766,1187.552c0,216.766-175.724,392.491-392.492,392.491s-392.492-175.725-392.492-392.491
		c0-216.767,175.725-392.493,392.492-392.493c25.407,0,50.22,2.502,74.284,7.114c2.486-13.284,4.527-24.214,5.969-31.948
		c-25.998-4.971-52.805-7.67-80.252-7.67c-234.719,0-424.997,190.277-424.997,424.997s190.278,424.997,424.997,424.997
		s424.997-190.277,424.997-424.997c0-191.98-127.322-354.161-302.109-406.882c-1.738,7.646-4.212,18.509-7.234,31.734
		C849.241,861.771,965.766,1011.043,965.766,1187.552z"/>
	<path style="fill:#CCCCCC;" d="M180.781,1187.552c0,216.766,175.725,392.491,392.492,392.491s392.492-175.725,392.492-392.491
		c0-176.509-116.524-325.782-276.839-375.148c-2.479,10.855-5.325,23.283-8.432,36.811c17.053,5.399,33.533,12.069,49.363,19.867
		c2.348,1.156,4.664,2.369,6.982,3.576c34.215,17.81,65.145,41.013,91.693,68.511c1.815,1.881,3.638,3.757,5.412,5.678
		c33.016,35.737,58.724,78.28,74.89,125.283c0.849,2.471,1.718,4.935,2.514,7.431c10.871,34.058,16.788,70.328,16.788,107.991
		c0,1.921-0.114,3.813-0.145,5.727c-0.042,2.62-0.101,5.236-0.198,7.842c-1.916,50.879-14.496,99.014-35.645,142.22
		c-1.151,2.352-2.375,4.66-3.577,6.982c-17.877,34.557-41.246,65.785-68.986,92.552c-1.881,1.816-3.756,3.639-5.678,5.414
		c-36.035,33.274-78.99,59.116-126.453,75.243c-2.476,0.841-4.93,1.727-7.43,2.514c-33.695,10.617-69.549,16.369-106.752,16.369
		c-2.627,0-5.218-0.141-7.831-0.198c-2.617-0.057-5.241-0.085-7.843-0.199c-51.07-2.222-99.312-15.256-142.557-36.842
		c-2.341-1.168-4.67-2.357-6.982-3.576c-34.451-18.161-65.521-41.827-92.101-69.823c-1.801-1.897-3.652-3.744-5.411-5.68
		c-32.902-36.215-58.328-79.302-74.08-126.8c-0.823-2.482-1.686-4.944-2.454-7.45c-10.128-32.981-15.606-67.997-15.606-104.298
		c0-3.287,0.158-6.536,0.247-9.802c0.072-2.613,0.071-5.245,0.198-7.843c2.481-50.66,15.651-98.484,37.199-141.38
		c1.174-2.338,2.352-4.674,3.576-6.982c18.091-34.109,41.593-64.878,69.346-91.241c1.896-1.801,3.742-3.654,5.678-5.413
		c35.914-32.646,78.595-57.93,125.633-73.725c2.479-0.832,4.926-1.735,7.43-2.514c33.345-10.375,68.798-15.964,105.557-15.964
		c2.581,0,5.128,0.14,7.697,0.195c2.616,0.056,5.239,0.086,7.843,0.198c17.636,0.761,34.927,2.828,51.804,6.071
		c2.553-13.578,4.895-26.064,6.939-36.979c-24.063-4.612-48.876-7.114-74.284-7.114
		C356.506,795.06,180.781,970.785,180.781,1187.552z"/>
	<path style="fill:#A5C715;" d="M1304.146,1176.859l0.218-0.271c0.643-0.551,1.377-0.906,2.127-1.183l-3.729,0.111
		C1303.221,1175.966,1303.696,1176.399,1304.146,1176.859z"/>
	<path style="fill:#8A9AA4;" d="M1467.163,574.292c0-1.54-0.459-2.953-1.099-4.271c-8.391-1.649-16.405-3.313-23.406-4.809
		c-6.23-0.285-12.451-0.614-18.6-0.98c-0.14,0.32-0.301,0.623-0.408,0.962l-2.274,7.242l45.788,7.129V574.292z"/>
	<path style="fill:#A5C715;" d="M1274.94,1074.426l-9.745,71.062c1.859,0.866,3.158,2.415,3.713,4.3l25.72-75.362H1274.94z"/>
	<path style="fill:#A5C715;" d="M1244.894,1074.426l-23.261,68.156c0.822-0.483,1.742-0.826,2.752-0.948
		c3.824-0.419,7.271,2.33,7.692,6.199l0.006,0.349c1.622-0.065,3.24-0.125,4.846-0.108l-0.005-0.335
		c0.119-1.411,0.737-2.6,1.541-3.634l12.027-69.68H1244.894z"/>
	<path style="fill:#A5C715;" d="M1155.641,1179.572c2.423-3.029,6.806-3.54,9.836-1.117l0.25,0.246
		c1.092-1.179,2.211-2.329,3.361-3.454l-0.257-0.241c-2.47-2.936-2.096-7.365,0.84-9.834c2.935-2.516,7.364-2.144,9.834,0.792
		l0.208,0.304c1.308-0.951,2.646-1.852,4.004-2.736l-0.202-0.271c-1.912-3.402-0.653-7.644,2.701-9.509
		c0.573-0.314,1.185-0.418,1.789-0.562L739.221,627.216l2.82-12.876l547.475,329.341l-36.874,108.042l47.247,0.001
		c0.824,0,1.622,0.097,2.396,0.264l28.493-83.485l32.626,19.627l27.917,16.794l32.315,19.44l56.57,34.03l177.185,106.589
		l-222.25,6.602l-50.918,1.513l-37.656,1.119l-32.53,0.966l-3.41,0.101c1.339,0.358,2.614,0.994,3.568,2.146
		c2.517,2.936,2.146,7.317-0.792,9.834l-0.308,0.176c0.947,1.3,1.851,2.629,2.734,3.98l0.278-0.194
		c3.402-1.863,7.643-0.652,9.507,2.75c1.865,3.357,0.654,7.598-2.703,9.463l-0.34,0.134c0.67,1.456,1.29,2.935,1.891,4.431
		l0.313-0.139c3.682-1.165,7.645,0.888,8.81,4.568c1.165,3.682-0.885,7.598-4.567,8.764l-0.33,0.059
		c0.377,1.574,0.711,3.161,1.011,4.767l0.345-0.073c2.933-0.357,5.618,1.198,6.93,3.683l11.467-0.504l37.711-1.657l243.988-10.724
		l29.291-1.287l41.986-1.845l1.632-0.072l12.044-0.53l5.362-0.236l9.002-0.396l4.463-0.196l7.862-0.345l1.369-0.06l4.01-0.176
		c1.332-0.204,2.581-0.66,3.775-1.253c1.229-0.61,2.36-1.436,3.425-2.392c1.891-1.699,3.493-3.872,4.777-6.377
		c0.172-0.335,0.329-0.684,0.488-1.03c1.086-2.352,1.882-4.91,2.365-7.598c0.163-0.907,0.343-1.806,0.432-2.73
		c0.249-2.616,0.157-5.268-0.244-7.857c-0.018-0.115-0.018-0.233-0.037-0.348c-0.439-2.617-1.279-5.119-2.464-7.447
		c-0.376-0.736-0.786-1.443-1.241-2.134c-1.421-2.159-3.18-4.109-5.43-5.663c-0.082-0.056-0.187-0.092-0.27-0.147
		c-2.04-1.365-4.482-2.375-7.242-3.063c-0.697-0.174-1.36-0.378-2.103-0.502c-1.69-0.281-3.465-0.471-5.409-0.471l-0.171,0.005
		l-2.211-1.329l-0.802-0.483l-3.105-1.868l-10.882-15.754l-175.018-253.375l-21.394-30.973l-18.482-26.756l-86.05-124.576
		l9.193-26.937l-42.926-16.676c-0.339-0.132-0.641-0.315-0.952-0.485l-81.289,238.182L751.627,569.342
		c-0.02-4.839-3.383-9.225-8.295-10.3l-35.597-7.798c-5.68-1.245-11.346,2.385-12.59,8.065l-25.608,116.897
		c-0.945,4.314,0.929,8.608,4.37,10.975l43.326,9.491c4.115-0.712,7.612-3.828,8.557-8.143l0.621-2.831l428.096,500.094
		C1153.905,1183.697,1154.17,1181.385,1155.641,1179.572z M1737.98,1172.336c1.119,0,2.198,0.147,3.247,0.382
		c2.48,0.556,4.696,1.755,6.533,3.383c3.065,2.714,5.037,6.635,5.037,11.051c0,8.183-6.634,14.817-14.817,14.817
		c-1.833,0-3.568-0.376-5.189-0.985c-5.612-2.109-9.627-7.482-9.627-13.832c0-0.692,0.111-1.353,0.203-2.02
		C1724.361,1177.915,1730.489,1172.336,1737.98,1172.336z M1411.121,733.093l76.91,111.342l18.472,26.741l21.383,30.956l138.15,200
		l20.427,29.573l-7.983-4.802l-232.512-139.871l-32.332-19.449l-27.886-16.776l-40.597-24.421L1411.121,733.093z"/>
	<path style="fill:#575757;" d="M1205.174,1434.328c3.728-0.655,6.219-4.207,5.564-7.935c-0.654-3.727-4.207-6.218-7.934-5.564
		c-3.727,0.655-6.218,4.208-5.564,7.935C1197.894,1432.492,1201.447,1434.983,1205.174,1434.328z"/>
	<path style="fill:#CCCCCC;" d="M1324.388,1281.987c-0.199-0.132-0.328-0.326-0.543-0.44l-0.276-0.111
		c0.157-0.363,0.287-0.738,0.437-1.104c0.454-1.11,0.903-2.221,1.325-3.349l0.333,0.138c0.651,0.187,1.304,0.28,1.957,0.28
		c3.028,0,5.825-2.004,6.71-5.034c1.072-3.73-1.071-7.597-4.753-8.671l-0.318-0.061c0.338-1.57,0.599-3.16,0.856-4.756l0.347,0.065
		h0.605c3.588,0,6.666-2.751,6.991-6.386c0.327-3.823-2.517-7.225-6.386-7.55l-0.331,0.005c0.021-1.594-0.02-3.196-0.078-4.805
		h0.362c3.821-0.421,6.573-3.869,6.2-7.737l-0.048-0.094v-0.28c-0.108-0.898-0.408-1.718-0.805-2.469
		c-1.312-2.485-3.996-4.04-6.93-3.683l-0.345,0.073c-0.3-1.606-0.634-3.194-1.011-4.767l0.33-0.059
		c3.682-1.165,5.732-5.082,4.567-8.764c-1.165-3.68-5.127-5.733-8.81-4.568l-0.313,0.139c-0.601-1.496-1.22-2.975-1.891-4.431
		l0.34-0.134c3.357-1.865,4.568-6.106,2.703-9.463c-1.863-3.402-6.105-4.613-9.507-2.75l-0.278,0.194
		c-0.883-1.351-1.787-2.68-2.734-3.98l0.308-0.176c2.938-2.517,3.309-6.897,0.792-9.834c-0.953-1.152-2.229-1.788-3.568-2.146
		c-1.369-0.366-2.787-0.376-4.138,0.123c-0.75,0.277-1.484,0.632-2.127,1.183l-0.218,0.271c-0.45-0.46-0.925-0.893-1.384-1.343
		c-0.696-0.682-1.382-1.374-2.098-2.036l0.251-0.246c2.376-3.029,1.91-7.412-1.119-9.834c-3.029-2.423-7.41-1.911-9.834,1.118
		l-0.173,0.267c-1.331-0.912-2.694-1.768-4.071-2.613l0.189-0.265c1.77-3.447,0.466-7.69-2.984-9.46
		c-3.402-1.773-7.642-0.421-9.414,2.981l-0.125,0.318c-1.481-0.634-2.993-1.193-4.508-1.753l0.159-0.335
		c0.382-1.331,0.235-2.637-0.128-3.87c-0.555-1.886-1.854-3.434-3.713-4.3l-8.81,64.243c10.173,6.187,17.484,16.829,18.877,29.58
		c2.379,21.788-13.354,41.381-35.142,43.76c-21.788,2.379-41.381-13.354-43.761-35.143c-2.249-20.6,11.7-39.214,31.642-43.198
		l10.465-60.625c-0.803,1.034-1.422,2.223-1.541,3.634l0.005,0.335c-1.607-0.017-3.224,0.043-4.846,0.108l-0.006-0.349
		c-0.421-3.869-3.868-6.618-7.692-6.199c-1.011,0.122-1.931,0.465-2.752,0.948c-2.321,1.365-3.755,3.968-3.444,6.789l0.108,0.345
		c-1.597,0.297-3.176,0.622-4.741,0.995l-0.075-0.36c-1.165-3.682-5.079-5.685-8.761-4.52c-3.682,1.165-5.733,5.079-4.568,8.762
		l0.165,0.326c-1.505,0.601-2.997,1.218-4.461,1.891l-0.133-0.309c-1.55-2.829-4.729-4.021-7.719-3.311
		c-0.604,0.144-1.216,0.248-1.789,0.562c-3.354,1.865-4.613,6.106-2.701,9.509l0.202,0.271c-1.358,0.885-2.696,1.786-4.004,2.736
		l-0.208-0.304c-2.47-2.936-6.899-3.309-9.834-0.792c-2.936,2.469-3.309,6.897-0.84,9.834l0.257,0.241
		c-1.151,1.125-2.27,2.275-3.361,3.454l-0.25-0.246c-3.03-2.423-7.412-1.911-9.836,1.117c-1.471,1.813-1.736,4.125-1.135,6.219
		c0.388,1.354,1.066,2.635,2.254,3.569l0.297,0.167c-0.92,1.339-1.788,2.707-2.641,4.092l-0.311-0.203
		c-3.403-1.773-7.645-0.421-9.416,2.981c-1.772,3.451-0.42,7.645,2.981,9.415l0.319,0.121c-0.635,1.474-1.198,2.977-1.76,4.486
		l-0.329-0.133c-3.729-1.072-7.597,1.071-8.669,4.801c-1.072,3.682,1.072,7.551,4.755,8.669l0.323,0.045
		c-0.332,1.563-0.58,3.146-0.833,4.733l-0.376-0.071c-3.823-0.327-7.226,2.517-7.551,6.384c-0.325,3.869,2.517,7.225,6.386,7.551
		l0.33,0.026c-0.018,1.598,0.036,3.203,0.099,4.815l-0.337,0.007c-3.869,0.419-6.617,3.869-6.199,7.69
		c0.372,3.589,3.402,6.247,6.943,6.247l0.794-0.048l0.327-0.07c0.293,1.586,0.611,3.156,0.979,4.71l-0.327,0.068
		c-3.682,1.165-5.732,5.079-4.567,8.761c0.93,2.983,3.679,4.893,6.662,4.893c0.699,0,1.4-0.093,2.099-0.325l0.335-0.145
		c0.597,1.498,1.204,2.985,1.872,4.443l-0.298,0.127c-3.403,1.866-4.613,6.106-2.749,9.508c1.258,2.285,3.637,3.637,6.105,3.637
		c1.165,0,2.331-0.327,3.402-0.885l0.28-0.194c0.875,1.344,1.763,2.671,2.701,3.965l-0.277,0.189
		c-2.935,2.471-3.309,6.9-0.839,9.835c1.399,1.677,3.357,2.517,5.359,2.517c1.586,0,3.17-0.559,4.476-1.632l0.261-0.269
		c1.129,1.158,2.28,2.285,3.465,3.384l-0.231,0.239c-2.423,2.984-1.959,7.412,1.072,9.788c1.259,1.072,2.842,1.538,4.381,1.538
		c2.049,0,4.053-0.885,5.452-2.61l0.167-0.265c1.325,0.911,2.673,1.773,4.042,2.617l-0.202,0.307
		c-1.771,3.402-0.419,7.641,2.984,9.414c1.024,0.512,2.143,0.792,3.215,0.792c2.517,0,4.986-1.352,6.199-3.776l0.122-0.298
		c1.476,0.637,2.98,1.207,4.491,1.77l-0.139,0.346c-0.924,3.171,0.625,6.406,3.434,7.956c0.45,0.248,0.851,0.564,1.365,0.712
		c0.652,0.187,1.306,0.28,1.912,0.28c3.029,0,5.825-2.005,6.759-5.033l0.059-0.328c1.558,0.332,3.136,0.585,4.717,0.838l-0.07,0.376
		c-0.325,3.821,2.517,7.223,6.386,7.55h0.605c1.882,0,3.579-0.783,4.845-2.027c1.148-1.128,1.945-2.63,2.101-4.358l-0.005-0.323
		c1.608,0.021,3.223-0.027,4.846-0.089l0.007,0.364c0.371,3.589,3.402,6.199,6.897,6.199l0.793-0.045
		c3.821-0.419,6.617-3.868,6.199-7.69l-0.074-0.347c1.584-0.291,3.156-0.604,4.709-0.97l0.071,0.338
		c0.932,2.981,3.682,4.893,6.665,4.893c0.699,0,1.397-0.093,2.097-0.326c3.682-1.165,5.732-5.081,4.568-8.763l-0.144-0.335
		c1.499-0.596,2.991-1.198,4.449-1.865l0.123,0.29c1.258,2.33,3.682,3.635,6.15,3.635c1.12,0,2.285-0.28,3.357-0.885
		c3.355-1.864,4.613-6.106,2.749-9.461l-0.205-0.299c1.352-0.878,2.691-1.764,3.993-2.706l0.173,0.254
		c1.398,1.632,3.357,2.517,5.36,2.517c1.586,0,3.215-0.56,4.521-1.677c2.937-2.471,3.309-6.897,0.838-9.833l-0.243-0.236
		c1.152-1.121,2.277-2.261,3.371-3.438l0.229,0.224c1.303,1.027,2.842,1.539,4.381,1.539c2.05,0,4.055-0.885,5.453-2.61
		c2.423-3.029,1.957-7.41-1.072-9.833l-0.275-0.178c0.912-1.323,1.778-2.67,2.623-4.037l0.31,0.204
		c1.024,0.514,2.096,0.794,3.215,0.794c2.368,0,4.617-1.273,5.927-3.398c0.083-0.134,0.197-0.237,0.271-0.377
		C1328.489,1287.775,1327.366,1283.959,1324.388,1281.987z"/>
	<path style="fill:#A5C715;" d="M664.111,747.173c-3.892,1.411-6.908,4.455-8.209,10.294c0,0-0.859,4.625-2.376,12.759
		c-1.442,7.734-3.483,18.664-5.969,31.948c-2.044,10.915-4.386,23.4-6.939,36.979c-18.751,99.711-48.869,258.056-55.434,281.688
		c-1.969,7.089-4.205,13.765-6.511,19.945c-2.848,7.629-5.796,14.452-8.517,20.234c-0.147,0.312-0.289,0.61-0.435,0.915
		c-1.823,3.836-3.525,7.197-5.001,9.979c-0.757,1.426-1.44,2.681-2.063,3.799c-1.969,3.539-3.216,5.537-3.216,5.537
		c-0.219,0.45-0.353,0.911-0.508,1.369c-0.409,1.208-0.61,2.427-0.613,3.638c-0.009,2.728,0.916,5.35,2.549,7.42
		c0.742,0.941,1.618,1.767,2.614,2.431c2.21,1.473,4.98,2.121,8.023,1.531c0.482-0.094,0.969-0.233,1.464-0.392
		c2.208-0.711,4.52-2.059,6.852-4.291c0.791-0.756,1.582-1.586,2.372-2.544c0,0,0.849-1.324,2.246-3.619
		c0.195-0.32,0.381-0.625,0.598-0.985c1.512-2.507,3.54-5.964,5.885-10.165c0.476-0.854,0.964-1.736,1.465-2.65
		c3.185-5.816,6.809-12.794,10.435-20.515c3.285-6.993,6.564-14.572,9.496-22.431c1.674-4.485,4.542-14.655,8.238-28.82
		c2.54-9.738,5.471-21.362,8.679-34.358c15.073-61.063,36.212-152.139,51.261-217.653c3.107-13.528,5.952-25.956,8.432-36.811
		c3.022-13.225,5.496-24.088,7.234-31.734c1.8-7.919,2.818-12.416,2.818-12.416c1.668-5.993,0.519-10.33-2.261-13.504
		c-3.605-4.113-9.954-6.27-16.489-7.526C674.512,746.125,668.7,745.509,664.111,747.173z"/>
	<path style="fill:#CCCCCC;" d="M699.278,540.437l-0.609,2.782c-0.67,3.06,1.286,6.113,4.345,6.783l45.125,9.885
		c3.06,0.671,6.112-1.285,6.783-4.345l0.61-2.782c0.67-3.06-1.285-6.113-4.346-6.783l-45.124-9.886
		C703.001,535.421,699.948,537.377,699.278,540.437z"/>
	<path style="fill:#CCCCCC;" d="M673.005,686.982c-3.06-0.67-6.112,1.285-6.783,4.346l-0.609,2.782
		c-0.67,3.06,1.285,6.112,4.346,6.783l3.64,0.798l32.692,7.162l8.791,1.926c3.061,0.67,6.113-1.285,6.784-4.346l0.609-2.782
		c0.672-3.06-1.284-6.113-4.345-6.783l-0.899-0.197l-43.326-9.491L673.005,686.982z"/>
	<path style="fill:#383839;" d="M764.869,381.868c-0.812,2.545-0.313,1.621,3.016,2.685c0,0,81.833,34.578,92.643,32.945
		c10.811-1.633,16.95-20.279,9.617-28.705c-7.334-8.426-92.072-36.355-92.072-36.355c-3.329-1.063-3.071-2.296-3.883,0.249
		l-0.69,2.158l-8.013,25.087L764.869,381.868z"/>
	<path style="fill:#787878;" d="M1254.343,1241.595c1.118,10.236-6.273,19.44-16.509,20.559c-10.235,1.117-19.44-6.274-20.559-16.51
		c-0.697-6.382,1.918-12.361,6.465-16.231l4.26-24.682c-19.942,3.983-33.891,22.598-31.642,43.198
		c2.379,21.789,21.972,37.522,43.761,35.143c21.788-2.379,37.522-21.972,35.142-43.76c-1.392-12.751-8.703-23.394-18.877-29.58
		l-3.614,26.356C1253.535,1237.805,1254.128,1239.624,1254.343,1241.595z"/>
	<path style="fill:#575757;" d="M1217.275,1245.643c1.119,10.236,10.323,17.628,20.559,16.51
		c10.236-1.119,17.627-10.323,16.509-20.559c-0.215-1.971-0.808-3.79-1.572-5.509l-1.109,8.082
		c-1.208,9.15-10.304,15.056-19.153,12.437c-7.303-2.162-11.831-9.449-10.536-16.955l1.767-10.237
		C1219.194,1233.282,1216.578,1239.261,1217.275,1245.643z"/>
	<path style="fill:#575757;" d="M1261.659,1069.926c3.785,0.001,6.852-3.067,6.852-6.852s-3.068-6.852-6.852-6.852
		c-3.785,0-6.853,3.068-6.853,6.852C1254.806,1066.859,1257.875,1069.927,1261.659,1069.926z"/>
	<path style="fill:#8A9AA4;" d="M1429.056,680.542l0.575,0.224c4.2,1.631,8.971-0.47,10.603-4.67l4.381-11.275
		c1.631-4.201-0.47-8.972-4.67-10.604l-8.945-3.474l-31.141-12.098l-3.415-1.327c-4.2-1.632-8.972,0.47-10.604,4.67l-4.379,11.275
		c-1.5,3.861,0.179,8.174,3.718,10.117c0.311,0.171,0.612,0.354,0.952,0.485L1429.056,680.542z"/>
	<path style="fill:#8A9AA4;" d="M1497.226,581.641c-5.935,2.682-12.789,4.215-19.989,4.515c-0.823,0.034-1.63,0.125-2.461,0.125
		c-5.182,0-10.517-0.672-15.816-2.081c-2.902-0.771-5.881,0.956-6.652,3.858c-0.771,2.903,0.957,5.881,3.859,6.652l-0.001-0.001
		c2.614,0.694,5.236,1.203,7.852,1.599c3.609,0.546,7.209,0.846,10.758,0.846c9.575-0.002,18.795-1.934,26.926-5.602
		c6.661-3.003,11.789-7.743,15.795-13.131c-4.048-0.434-8.418-0.998-13.011-1.668
		C1502.331,578.739,1499.953,580.405,1497.226,581.641z"/>
	<path style="fill:#045166;" d="M1602.789,474.471c0.28-9.561-2.122-17.06-9.262-17.759
		c-15.691-1.537-174.691,50.271-243.985,51.953c-51.115,1.24-34.762,45.3-1.16,49.169c17.142,1.974,45.458,4.599,75.676,6.398
		c6.149,0.366,12.37,0.695,18.6,0.98c7.001,1.496,15.015,3.16,23.406,4.809c12.735,2.503,26.303,4.966,38.422,6.733
		c4.593,0.669,8.963,1.234,13.011,1.668c4.937,0.529,9.389,0.862,13.102,0.922C1583.823,580.21,1604.293,547.616,1602.789,474.471z"
		/>
	<path style="fill:#21141A;" d="M1732.791,1200.984c1.621,0.609,3.356,0.985,5.189,0.985c8.183,0,14.817-6.634,14.817-14.817
		c0-4.416-1.972-8.337-5.037-11.051c-1.837-1.627-4.054-2.827-6.533-3.383c-1.048-0.235-2.128-0.382-3.247-0.382
		c-7.491,0-13.619,5.579-14.613,12.796c-0.092,0.667-0.203,1.328-0.203,2.02C1723.164,1193.502,1727.178,1198.875,1732.791,1200.984
		z"/>
	<path style="fill:#1C2C42;" d="M1508.182,565.803c-19.186,0.884-42.363,0.467-65.525-0.592c7.001,1.496,15.015,3.16,23.406,4.809
		c12.735,2.503,26.303,4.966,38.422,6.733c4.593,0.669,8.963,1.234,13.011,1.668c4.937,0.529,9.389,0.862,13.102,0.922
		c53.223,0.867,73.694-31.727,72.19-104.873c-0.337,11.455-4.537,25.88-9.24,35.255
		C1584.92,526.928,1557.885,563.513,1508.182,565.803z"/>
</g>
</svg>
